<mxfile host="Electron" modified="2023-06-30T02:37:46.264Z" agent="Mozilla/5.0 (Windows NT 10.0; Win64; x64) AppleWebKit/537.36 (KHTML, like Gecko) draw.io/21.5.1 Chrome/112.0.5615.204 Electron/24.6.0 Safari/537.36" etag="Cz61ZByBSmv7uv2jQRD4" version="21.5.1" type="device">
  <diagram name="Page-1" id="Re5m7t8GzPyVlKuKbzfY">
    <mxGraphModel dx="1036" dy="614" grid="1" gridSize="10" guides="1" tooltips="1" connect="1" arrows="1" fold="1" page="1" pageScale="1" pageWidth="850" pageHeight="1100" math="0" shadow="0">
      <root>
        <mxCell id="0" />
        <mxCell id="1" parent="0" />
        <mxCell id="tG6ciMTKyikNV-2g3emU-106" value="" style="rounded=1;whiteSpace=wrap;html=1;" parent="1" vertex="1">
          <mxGeometry x="620" y="770" width="260" height="90" as="geometry" />
        </mxCell>
        <mxCell id="tG6ciMTKyikNV-2g3emU-4" value="" style="edgeStyle=orthogonalEdgeStyle;rounded=0;orthogonalLoop=1;jettySize=auto;html=1;" parent="1" source="tG6ciMTKyikNV-2g3emU-2" target="tG6ciMTKyikNV-2g3emU-3" edge="1">
          <mxGeometry relative="1" as="geometry" />
        </mxCell>
        <mxCell id="tG6ciMTKyikNV-2g3emU-6" value="Feature Map 1" style="edgeLabel;html=1;align=center;verticalAlign=middle;resizable=0;points=[];" parent="tG6ciMTKyikNV-2g3emU-4" vertex="1" connectable="0">
          <mxGeometry x="-0.21" y="1" relative="1" as="geometry">
            <mxPoint as="offset" />
          </mxGeometry>
        </mxCell>
        <mxCell id="tG6ciMTKyikNV-2g3emU-2" value="Input (3, 64, 64)" style="rounded=0;whiteSpace=wrap;html=1;fillColor=#dae8fc;strokeColor=#6c8ebf;" parent="1" vertex="1">
          <mxGeometry x="80" y="360" width="120" height="40" as="geometry" />
        </mxCell>
        <mxCell id="tG6ciMTKyikNV-2g3emU-10" value="" style="edgeStyle=orthogonalEdgeStyle;rounded=0;orthogonalLoop=1;jettySize=auto;html=1;" parent="1" source="tG6ciMTKyikNV-2g3emU-3" target="tG6ciMTKyikNV-2g3emU-7" edge="1">
          <mxGeometry relative="1" as="geometry" />
        </mxCell>
        <mxCell id="tG6ciMTKyikNV-2g3emU-11" value="Feature Map 2" style="edgeLabel;html=1;align=center;verticalAlign=middle;resizable=0;points=[];" parent="tG6ciMTKyikNV-2g3emU-10" vertex="1" connectable="0">
          <mxGeometry x="-0.1155" relative="1" as="geometry">
            <mxPoint as="offset" />
          </mxGeometry>
        </mxCell>
        <mxCell id="tG6ciMTKyikNV-2g3emU-21" value="" style="edgeStyle=orthogonalEdgeStyle;rounded=0;orthogonalLoop=1;jettySize=auto;html=1;" parent="1" source="tG6ciMTKyikNV-2g3emU-3" target="tG6ciMTKyikNV-2g3emU-20" edge="1">
          <mxGeometry relative="1" as="geometry">
            <Array as="points">
              <mxPoint x="240" y="460" />
              <mxPoint x="240" y="460" />
            </Array>
          </mxGeometry>
        </mxCell>
        <mxCell id="tG6ciMTKyikNV-2g3emU-23" value="Channel-wise&lt;br&gt;Conv 1" style="edgeLabel;html=1;align=center;verticalAlign=middle;resizable=0;points=[];" parent="tG6ciMTKyikNV-2g3emU-21" vertex="1" connectable="0">
          <mxGeometry x="0.0397" y="2" relative="1" as="geometry">
            <mxPoint y="-18" as="offset" />
          </mxGeometry>
        </mxCell>
        <mxCell id="tG6ciMTKyikNV-2g3emU-3" value="(64, 32, 32)" style="whiteSpace=wrap;html=1;rounded=0;fillColor=#dae8fc;strokeColor=#6c8ebf;" parent="1" vertex="1">
          <mxGeometry x="80" y="440" width="120" height="40" as="geometry" />
        </mxCell>
        <mxCell id="tG6ciMTKyikNV-2g3emU-5" value="&lt;font style=&quot;font-size: 20px;&quot;&gt;Residual Lagging VAE (Celeb Attribute Dataset)&lt;/font&gt;" style="text;html=1;align=center;verticalAlign=middle;resizable=0;points=[];autosize=1;strokeColor=none;fillColor=none;" parent="1" vertex="1">
          <mxGeometry x="265" y="315" width="450" height="40" as="geometry" />
        </mxCell>
        <mxCell id="tG6ciMTKyikNV-2g3emU-13" value="" style="edgeStyle=orthogonalEdgeStyle;rounded=0;orthogonalLoop=1;jettySize=auto;html=1;" parent="1" source="tG6ciMTKyikNV-2g3emU-7" target="tG6ciMTKyikNV-2g3emU-12" edge="1">
          <mxGeometry relative="1" as="geometry" />
        </mxCell>
        <mxCell id="tG6ciMTKyikNV-2g3emU-15" value="Feature Map 3" style="edgeLabel;html=1;align=center;verticalAlign=middle;resizable=0;points=[];" parent="tG6ciMTKyikNV-2g3emU-13" vertex="1" connectable="0">
          <mxGeometry x="-0.1845" relative="1" as="geometry">
            <mxPoint as="offset" />
          </mxGeometry>
        </mxCell>
        <mxCell id="tG6ciMTKyikNV-2g3emU-27" value="" style="edgeStyle=orthogonalEdgeStyle;rounded=0;orthogonalLoop=1;jettySize=auto;html=1;" parent="1" source="tG6ciMTKyikNV-2g3emU-7" target="tG6ciMTKyikNV-2g3emU-24" edge="1">
          <mxGeometry relative="1" as="geometry" />
        </mxCell>
        <mxCell id="tG6ciMTKyikNV-2g3emU-31" value="Channel-wise&lt;br style=&quot;border-color: var(--border-color);&quot;&gt;Conv 2" style="edgeLabel;html=1;align=center;verticalAlign=middle;resizable=0;points=[];" parent="tG6ciMTKyikNV-2g3emU-27" vertex="1" connectable="0">
          <mxGeometry x="0.0397" relative="1" as="geometry">
            <mxPoint y="-20" as="offset" />
          </mxGeometry>
        </mxCell>
        <mxCell id="tG6ciMTKyikNV-2g3emU-7" value="(128, 16, 16)" style="whiteSpace=wrap;html=1;rounded=0;fillColor=#dae8fc;strokeColor=#6c8ebf;" parent="1" vertex="1">
          <mxGeometry x="80" y="520" width="120" height="40" as="geometry" />
        </mxCell>
        <mxCell id="tG6ciMTKyikNV-2g3emU-17" value="" style="edgeStyle=orthogonalEdgeStyle;rounded=0;orthogonalLoop=1;jettySize=auto;html=1;" parent="1" source="tG6ciMTKyikNV-2g3emU-12" target="tG6ciMTKyikNV-2g3emU-16" edge="1">
          <mxGeometry relative="1" as="geometry" />
        </mxCell>
        <mxCell id="tG6ciMTKyikNV-2g3emU-19" value="Feature Map 4" style="edgeLabel;html=1;align=center;verticalAlign=middle;resizable=0;points=[];" parent="tG6ciMTKyikNV-2g3emU-17" vertex="1" connectable="0">
          <mxGeometry x="-0.1044" y="2" relative="1" as="geometry">
            <mxPoint as="offset" />
          </mxGeometry>
        </mxCell>
        <mxCell id="tG6ciMTKyikNV-2g3emU-28" value="" style="edgeStyle=orthogonalEdgeStyle;rounded=0;orthogonalLoop=1;jettySize=auto;html=1;" parent="1" source="tG6ciMTKyikNV-2g3emU-12" target="tG6ciMTKyikNV-2g3emU-25" edge="1">
          <mxGeometry relative="1" as="geometry" />
        </mxCell>
        <mxCell id="tG6ciMTKyikNV-2g3emU-33" value="Channel-wise&lt;br style=&quot;border-color: var(--border-color);&quot;&gt;Conv 3" style="edgeLabel;html=1;align=center;verticalAlign=middle;resizable=0;points=[];" parent="tG6ciMTKyikNV-2g3emU-28" vertex="1" connectable="0">
          <mxGeometry x="0.0741" y="2" relative="1" as="geometry">
            <mxPoint y="-18" as="offset" />
          </mxGeometry>
        </mxCell>
        <mxCell id="tG6ciMTKyikNV-2g3emU-12" value="(256, 8, 8)" style="whiteSpace=wrap;html=1;rounded=0;fillColor=#dae8fc;strokeColor=#6c8ebf;" parent="1" vertex="1">
          <mxGeometry x="80" y="600" width="120" height="40" as="geometry" />
        </mxCell>
        <mxCell id="tG6ciMTKyikNV-2g3emU-29" value="" style="edgeStyle=orthogonalEdgeStyle;rounded=0;orthogonalLoop=1;jettySize=auto;html=1;" parent="1" source="tG6ciMTKyikNV-2g3emU-16" target="tG6ciMTKyikNV-2g3emU-26" edge="1">
          <mxGeometry relative="1" as="geometry" />
        </mxCell>
        <mxCell id="tG6ciMTKyikNV-2g3emU-34" value="Channel-wise&lt;br&gt;Conv 4" style="edgeLabel;html=1;align=center;verticalAlign=middle;resizable=0;points=[];" parent="tG6ciMTKyikNV-2g3emU-29" vertex="1" connectable="0">
          <mxGeometry x="-0.0293" y="2" relative="1" as="geometry">
            <mxPoint y="-18" as="offset" />
          </mxGeometry>
        </mxCell>
        <mxCell id="tG6ciMTKyikNV-2g3emU-16" value="(256, 4, 4)" style="whiteSpace=wrap;html=1;rounded=0;fillColor=#dae8fc;strokeColor=#6c8ebf;" parent="1" vertex="1">
          <mxGeometry x="80" y="680" width="120" height="40" as="geometry" />
        </mxCell>
        <mxCell id="tG6ciMTKyikNV-2g3emU-44" style="edgeStyle=orthogonalEdgeStyle;rounded=0;orthogonalLoop=1;jettySize=auto;html=1;entryX=0.5;entryY=0;entryDx=0;entryDy=0;" parent="1" source="tG6ciMTKyikNV-2g3emU-20" target="tG6ciMTKyikNV-2g3emU-43" edge="1">
          <mxGeometry relative="1" as="geometry">
            <Array as="points">
              <mxPoint x="380" y="460" />
            </Array>
          </mxGeometry>
        </mxCell>
        <mxCell id="tG6ciMTKyikNV-2g3emU-20" value="(1, 32, 32)" style="whiteSpace=wrap;html=1;rounded=0;fillColor=#dae8fc;strokeColor=#6c8ebf;" parent="1" vertex="1">
          <mxGeometry x="280" y="440" width="80" height="40" as="geometry" />
        </mxCell>
        <mxCell id="tG6ciMTKyikNV-2g3emU-45" style="edgeStyle=orthogonalEdgeStyle;rounded=0;orthogonalLoop=1;jettySize=auto;html=1;entryX=0.5;entryY=0;entryDx=0;entryDy=0;" parent="1" source="tG6ciMTKyikNV-2g3emU-24" target="tG6ciMTKyikNV-2g3emU-43" edge="1">
          <mxGeometry relative="1" as="geometry">
            <Array as="points">
              <mxPoint x="380" y="540" />
            </Array>
          </mxGeometry>
        </mxCell>
        <mxCell id="tG6ciMTKyikNV-2g3emU-24" value="(4, 16, 16)" style="whiteSpace=wrap;html=1;rounded=0;fillColor=#dae8fc;strokeColor=#6c8ebf;" parent="1" vertex="1">
          <mxGeometry x="280" y="520" width="80" height="40" as="geometry" />
        </mxCell>
        <mxCell id="tG6ciMTKyikNV-2g3emU-46" style="edgeStyle=orthogonalEdgeStyle;rounded=0;orthogonalLoop=1;jettySize=auto;html=1;entryX=0.5;entryY=0;entryDx=0;entryDy=0;" parent="1" source="tG6ciMTKyikNV-2g3emU-25" target="tG6ciMTKyikNV-2g3emU-43" edge="1">
          <mxGeometry relative="1" as="geometry">
            <Array as="points">
              <mxPoint x="380" y="620" />
            </Array>
          </mxGeometry>
        </mxCell>
        <mxCell id="tG6ciMTKyikNV-2g3emU-25" value="(16, 8, 8)" style="whiteSpace=wrap;html=1;rounded=0;fillColor=#dae8fc;strokeColor=#6c8ebf;" parent="1" vertex="1">
          <mxGeometry x="280" y="600" width="80" height="40" as="geometry" />
        </mxCell>
        <mxCell id="tG6ciMTKyikNV-2g3emU-47" style="edgeStyle=orthogonalEdgeStyle;rounded=0;orthogonalLoop=1;jettySize=auto;html=1;" parent="1" source="tG6ciMTKyikNV-2g3emU-26" edge="1">
          <mxGeometry relative="1" as="geometry">
            <mxPoint x="380" y="760" as="targetPoint" />
          </mxGeometry>
        </mxCell>
        <mxCell id="tG6ciMTKyikNV-2g3emU-48" value="Flatten &amp;amp; Concat" style="edgeLabel;html=1;align=center;verticalAlign=middle;resizable=0;points=[];" parent="tG6ciMTKyikNV-2g3emU-47" vertex="1" connectable="0">
          <mxGeometry x="0.4555" y="1" relative="1" as="geometry">
            <mxPoint x="-1" y="-8" as="offset" />
          </mxGeometry>
        </mxCell>
        <mxCell id="tG6ciMTKyikNV-2g3emU-26" value="(64, 4, 4)" style="whiteSpace=wrap;html=1;rounded=0;fillColor=#dae8fc;strokeColor=#6c8ebf;" parent="1" vertex="1">
          <mxGeometry x="280" y="680" width="80" height="40" as="geometry" />
        </mxCell>
        <mxCell id="tG6ciMTKyikNV-2g3emU-52" style="edgeStyle=orthogonalEdgeStyle;rounded=0;orthogonalLoop=1;jettySize=auto;html=1;entryX=0.25;entryY=0;entryDx=0;entryDy=0;" parent="1" source="tG6ciMTKyikNV-2g3emU-43" target="tG6ciMTKyikNV-2g3emU-49" edge="1">
          <mxGeometry relative="1" as="geometry" />
        </mxCell>
        <mxCell id="tG6ciMTKyikNV-2g3emU-55" value="Dense" style="edgeLabel;html=1;align=center;verticalAlign=middle;resizable=0;points=[];" parent="tG6ciMTKyikNV-2g3emU-52" vertex="1" connectable="0">
          <mxGeometry x="-0.1638" y="-2" relative="1" as="geometry">
            <mxPoint as="offset" />
          </mxGeometry>
        </mxCell>
        <mxCell id="tG6ciMTKyikNV-2g3emU-43" value="4096" style="rounded=0;whiteSpace=wrap;html=1;fillColor=#dae8fc;strokeColor=#6c8ebf;" parent="1" vertex="1">
          <mxGeometry x="340" y="760" width="80" height="40" as="geometry" />
        </mxCell>
        <mxCell id="tG6ciMTKyikNV-2g3emU-54" style="edgeStyle=orthogonalEdgeStyle;rounded=0;orthogonalLoop=1;jettySize=auto;html=1;exitX=0.75;exitY=0;exitDx=0;exitDy=0;entryX=0.5;entryY=1;entryDx=0;entryDy=0;" parent="1" source="tG6ciMTKyikNV-2g3emU-49" target="tG6ciMTKyikNV-2g3emU-53" edge="1">
          <mxGeometry relative="1" as="geometry" />
        </mxCell>
        <mxCell id="tG6ciMTKyikNV-2g3emU-56" value="Dense" style="edgeLabel;html=1;align=center;verticalAlign=middle;resizable=0;points=[];" parent="tG6ciMTKyikNV-2g3emU-54" vertex="1" connectable="0">
          <mxGeometry x="-0.0431" y="-1" relative="1" as="geometry">
            <mxPoint as="offset" />
          </mxGeometry>
        </mxCell>
        <mxCell id="tG6ciMTKyikNV-2g3emU-49" value="150" style="rounded=0;whiteSpace=wrap;html=1;" parent="1" vertex="1">
          <mxGeometry x="320" y="840" width="240" height="40" as="geometry" />
        </mxCell>
        <mxCell id="tG6ciMTKyikNV-2g3emU-61" style="edgeStyle=orthogonalEdgeStyle;rounded=0;orthogonalLoop=1;jettySize=auto;html=1;entryX=0;entryY=0.5;entryDx=0;entryDy=0;" parent="1" source="tG6ciMTKyikNV-2g3emU-53" target="tG6ciMTKyikNV-2g3emU-60" edge="1">
          <mxGeometry relative="1" as="geometry" />
        </mxCell>
        <mxCell id="tG6ciMTKyikNV-2g3emU-62" style="edgeStyle=orthogonalEdgeStyle;rounded=0;orthogonalLoop=1;jettySize=auto;html=1;exitX=0.5;exitY=0;exitDx=0;exitDy=0;entryX=0;entryY=0.5;entryDx=0;entryDy=0;" parent="1" source="tG6ciMTKyikNV-2g3emU-53" target="tG6ciMTKyikNV-2g3emU-59" edge="1">
          <mxGeometry relative="1" as="geometry" />
        </mxCell>
        <mxCell id="tG6ciMTKyikNV-2g3emU-64" style="edgeStyle=orthogonalEdgeStyle;rounded=0;orthogonalLoop=1;jettySize=auto;html=1;exitX=0.5;exitY=0;exitDx=0;exitDy=0;entryX=0;entryY=0.5;entryDx=0;entryDy=0;" parent="1" source="tG6ciMTKyikNV-2g3emU-53" target="tG6ciMTKyikNV-2g3emU-58" edge="1">
          <mxGeometry relative="1" as="geometry" />
        </mxCell>
        <mxCell id="tG6ciMTKyikNV-2g3emU-65" style="edgeStyle=orthogonalEdgeStyle;rounded=0;orthogonalLoop=1;jettySize=auto;html=1;exitX=0.5;exitY=0;exitDx=0;exitDy=0;entryX=0;entryY=0.5;entryDx=0;entryDy=0;" parent="1" source="tG6ciMTKyikNV-2g3emU-53" target="tG6ciMTKyikNV-2g3emU-57" edge="1">
          <mxGeometry relative="1" as="geometry" />
        </mxCell>
        <mxCell id="tG6ciMTKyikNV-2g3emU-66" value="Split &amp;amp; Reshape" style="edgeLabel;html=1;align=center;verticalAlign=middle;resizable=0;points=[];" parent="tG6ciMTKyikNV-2g3emU-65" vertex="1" connectable="0">
          <mxGeometry x="-0.8243" relative="1" as="geometry">
            <mxPoint as="offset" />
          </mxGeometry>
        </mxCell>
        <mxCell id="tG6ciMTKyikNV-2g3emU-53" value="4096" style="rounded=0;whiteSpace=wrap;html=1;fillColor=#ffe6cc;strokeColor=#d79b00;" parent="1" vertex="1">
          <mxGeometry x="460" y="760" width="80" height="40" as="geometry" />
        </mxCell>
        <mxCell id="tG6ciMTKyikNV-2g3emU-71" value="" style="edgeStyle=orthogonalEdgeStyle;rounded=0;orthogonalLoop=1;jettySize=auto;html=1;entryX=0;entryY=0.5;entryDx=0;entryDy=0;" parent="1" source="tG6ciMTKyikNV-2g3emU-57" target="tG6ciMTKyikNV-2g3emU-94" edge="1">
          <mxGeometry relative="1" as="geometry">
            <mxPoint x="720" y="460" as="targetPoint" />
          </mxGeometry>
        </mxCell>
        <mxCell id="tG6ciMTKyikNV-2g3emU-72" value="Channel-wise&lt;br&gt;Conv 1" style="edgeLabel;html=1;align=center;verticalAlign=middle;resizable=0;points=[];" parent="tG6ciMTKyikNV-2g3emU-71" vertex="1" connectable="0">
          <mxGeometry x="0.0741" y="-2" relative="1" as="geometry">
            <mxPoint y="-22" as="offset" />
          </mxGeometry>
        </mxCell>
        <mxCell id="tG6ciMTKyikNV-2g3emU-57" value="(1, 32, 32)" style="whiteSpace=wrap;html=1;rounded=0;fillColor=#ffe6cc;strokeColor=#d79b00;" parent="1" vertex="1">
          <mxGeometry x="520" y="440" width="80" height="40" as="geometry" />
        </mxCell>
        <mxCell id="tG6ciMTKyikNV-2g3emU-73" value="" style="edgeStyle=orthogonalEdgeStyle;rounded=0;orthogonalLoop=1;jettySize=auto;html=1;entryX=0;entryY=0.5;entryDx=0;entryDy=0;" parent="1" source="tG6ciMTKyikNV-2g3emU-58" target="tG6ciMTKyikNV-2g3emU-88" edge="1">
          <mxGeometry relative="1" as="geometry">
            <mxPoint x="690" y="540" as="targetPoint" />
          </mxGeometry>
        </mxCell>
        <mxCell id="tG6ciMTKyikNV-2g3emU-75" value="Channel-wise&lt;br style=&quot;border-color: var(--border-color);&quot;&gt;Conv 2" style="edgeLabel;html=1;align=center;verticalAlign=middle;resizable=0;points=[];" parent="tG6ciMTKyikNV-2g3emU-73" vertex="1" connectable="0">
          <mxGeometry x="0.0741" y="-1" relative="1" as="geometry">
            <mxPoint y="-21" as="offset" />
          </mxGeometry>
        </mxCell>
        <mxCell id="tG6ciMTKyikNV-2g3emU-58" value="(4, 16, 16)" style="whiteSpace=wrap;html=1;rounded=0;fillColor=#ffe6cc;strokeColor=#d79b00;" parent="1" vertex="1">
          <mxGeometry x="520" y="520" width="80" height="40" as="geometry" />
        </mxCell>
        <mxCell id="tG6ciMTKyikNV-2g3emU-76" value="" style="edgeStyle=orthogonalEdgeStyle;rounded=0;orthogonalLoop=1;jettySize=auto;html=1;entryX=0;entryY=0.5;entryDx=0;entryDy=0;" parent="1" source="tG6ciMTKyikNV-2g3emU-59" target="tG6ciMTKyikNV-2g3emU-81" edge="1">
          <mxGeometry relative="1" as="geometry">
            <mxPoint x="680" y="620" as="targetPoint" />
          </mxGeometry>
        </mxCell>
        <mxCell id="tG6ciMTKyikNV-2g3emU-78" value="Channel-wise&lt;br style=&quot;border-color: var(--border-color);&quot;&gt;Conv 3" style="edgeLabel;html=1;align=center;verticalAlign=middle;resizable=0;points=[];" parent="tG6ciMTKyikNV-2g3emU-76" vertex="1" connectable="0">
          <mxGeometry x="0.0397" y="2" relative="1" as="geometry">
            <mxPoint y="-18" as="offset" />
          </mxGeometry>
        </mxCell>
        <mxCell id="tG6ciMTKyikNV-2g3emU-59" value="(16, 8, 8)" style="whiteSpace=wrap;html=1;rounded=0;fillColor=#ffe6cc;strokeColor=#d79b00;" parent="1" vertex="1">
          <mxGeometry x="520" y="600" width="80" height="40" as="geometry" />
        </mxCell>
        <mxCell id="tG6ciMTKyikNV-2g3emU-77" value="" style="edgeStyle=orthogonalEdgeStyle;rounded=0;orthogonalLoop=1;jettySize=auto;html=1;" parent="1" source="tG6ciMTKyikNV-2g3emU-60" target="tG6ciMTKyikNV-2g3emU-70" edge="1">
          <mxGeometry relative="1" as="geometry" />
        </mxCell>
        <mxCell id="tG6ciMTKyikNV-2g3emU-79" value="Channel-wise&lt;br style=&quot;border-color: var(--border-color);&quot;&gt;Conv 4" style="edgeLabel;html=1;align=center;verticalAlign=middle;resizable=0;points=[];" parent="tG6ciMTKyikNV-2g3emU-77" vertex="1" connectable="0">
          <mxGeometry x="-0.0293" relative="1" as="geometry">
            <mxPoint x="1" y="-20" as="offset" />
          </mxGeometry>
        </mxCell>
        <mxCell id="tG6ciMTKyikNV-2g3emU-60" value="(64, 4, 4)" style="whiteSpace=wrap;html=1;rounded=0;fillColor=#ffe6cc;strokeColor=#d79b00;" parent="1" vertex="1">
          <mxGeometry x="520" y="680" width="80" height="40" as="geometry" />
        </mxCell>
        <mxCell id="tG6ciMTKyikNV-2g3emU-102" value="" style="edgeStyle=orthogonalEdgeStyle;rounded=0;orthogonalLoop=1;jettySize=auto;html=1;" parent="1" source="tG6ciMTKyikNV-2g3emU-67" target="tG6ciMTKyikNV-2g3emU-101" edge="1">
          <mxGeometry relative="1" as="geometry" />
        </mxCell>
        <mxCell id="tG6ciMTKyikNV-2g3emU-104" value="Deconvolution 1" style="edgeLabel;html=1;align=center;verticalAlign=middle;resizable=0;points=[];" parent="tG6ciMTKyikNV-2g3emU-102" vertex="1" connectable="0">
          <mxGeometry x="-0.1471" y="-1" relative="1" as="geometry">
            <mxPoint as="offset" />
          </mxGeometry>
        </mxCell>
        <mxCell id="tG6ciMTKyikNV-2g3emU-67" value="(64, 32, 32)" style="whiteSpace=wrap;html=1;rounded=0;fillColor=#ffe6cc;strokeColor=#d79b00;" parent="1" vertex="1">
          <mxGeometry x="800" y="440" width="120" height="40" as="geometry" />
        </mxCell>
        <mxCell id="tG6ciMTKyikNV-2g3emU-98" style="edgeStyle=orthogonalEdgeStyle;rounded=0;orthogonalLoop=1;jettySize=auto;html=1;entryX=0.5;entryY=1;entryDx=0;entryDy=0;" parent="1" source="tG6ciMTKyikNV-2g3emU-68" target="tG6ciMTKyikNV-2g3emU-94" edge="1">
          <mxGeometry relative="1" as="geometry">
            <Array as="points">
              <mxPoint x="860" y="500" />
              <mxPoint x="740" y="500" />
            </Array>
          </mxGeometry>
        </mxCell>
        <mxCell id="tG6ciMTKyikNV-2g3emU-99" value="Deconvolution 2" style="edgeLabel;html=1;align=center;verticalAlign=middle;resizable=0;points=[];" parent="tG6ciMTKyikNV-2g3emU-98" vertex="1" connectable="0">
          <mxGeometry x="-0.0445" y="1" relative="1" as="geometry">
            <mxPoint as="offset" />
          </mxGeometry>
        </mxCell>
        <mxCell id="tG6ciMTKyikNV-2g3emU-68" value="(128, 16, 16)" style="whiteSpace=wrap;html=1;rounded=0;fillColor=#ffe6cc;strokeColor=#d79b00;" parent="1" vertex="1">
          <mxGeometry x="800" y="520" width="120" height="40" as="geometry" />
        </mxCell>
        <mxCell id="tG6ciMTKyikNV-2g3emU-90" style="edgeStyle=orthogonalEdgeStyle;rounded=0;orthogonalLoop=1;jettySize=auto;html=1;entryX=0.5;entryY=1;entryDx=0;entryDy=0;" parent="1" source="tG6ciMTKyikNV-2g3emU-69" target="tG6ciMTKyikNV-2g3emU-88" edge="1">
          <mxGeometry relative="1" as="geometry">
            <Array as="points">
              <mxPoint x="860" y="580" />
              <mxPoint x="740" y="580" />
            </Array>
          </mxGeometry>
        </mxCell>
        <mxCell id="tG6ciMTKyikNV-2g3emU-92" value="Deconvolution 3" style="edgeLabel;html=1;align=center;verticalAlign=middle;resizable=0;points=[];" parent="tG6ciMTKyikNV-2g3emU-90" vertex="1" connectable="0">
          <mxGeometry x="-0.0168" y="2" relative="1" as="geometry">
            <mxPoint as="offset" />
          </mxGeometry>
        </mxCell>
        <mxCell id="tG6ciMTKyikNV-2g3emU-69" value="(256, 8, 8)" style="whiteSpace=wrap;html=1;rounded=0;fillColor=#ffe6cc;strokeColor=#d79b00;" parent="1" vertex="1">
          <mxGeometry x="800" y="600" width="120" height="40" as="geometry" />
        </mxCell>
        <mxCell id="tG6ciMTKyikNV-2g3emU-82" value="" style="edgeStyle=orthogonalEdgeStyle;rounded=0;orthogonalLoop=1;jettySize=auto;html=1;" parent="1" source="tG6ciMTKyikNV-2g3emU-70" target="tG6ciMTKyikNV-2g3emU-81" edge="1">
          <mxGeometry relative="1" as="geometry" />
        </mxCell>
        <mxCell id="tG6ciMTKyikNV-2g3emU-83" value="Deconvolution 4" style="edgeLabel;html=1;align=center;verticalAlign=middle;resizable=0;points=[];" parent="tG6ciMTKyikNV-2g3emU-82" vertex="1" connectable="0">
          <mxGeometry x="-0.1962" y="-1" relative="1" as="geometry">
            <mxPoint as="offset" />
          </mxGeometry>
        </mxCell>
        <mxCell id="tG6ciMTKyikNV-2g3emU-70" value="(256, 4, 4)" style="whiteSpace=wrap;html=1;rounded=0;fillColor=#ffe6cc;strokeColor=#d79b00;" parent="1" vertex="1">
          <mxGeometry x="680" y="680" width="120" height="40" as="geometry" />
        </mxCell>
        <mxCell id="tG6ciMTKyikNV-2g3emU-84" value="" style="edgeStyle=orthogonalEdgeStyle;rounded=0;orthogonalLoop=1;jettySize=auto;html=1;" parent="1" source="tG6ciMTKyikNV-2g3emU-81" target="tG6ciMTKyikNV-2g3emU-69" edge="1">
          <mxGeometry relative="1" as="geometry" />
        </mxCell>
        <mxCell id="tG6ciMTKyikNV-2g3emU-81" value="" style="shape=lineEllipse;line=vertical;perimeter=ellipsePerimeter;whiteSpace=wrap;html=1;backgroundOutline=1;" parent="1" vertex="1">
          <mxGeometry x="725" y="605" width="30" height="30" as="geometry" />
        </mxCell>
        <mxCell id="tG6ciMTKyikNV-2g3emU-85" value="" style="shape=lineEllipse;line=vertical;perimeter=ellipsePerimeter;whiteSpace=wrap;html=1;backgroundOutline=1;" parent="1" vertex="1">
          <mxGeometry x="640" y="800" width="40" height="40" as="geometry" />
        </mxCell>
        <mxCell id="tG6ciMTKyikNV-2g3emU-86" value="Weighted Average using n portion &lt;br&gt;of bottom and m portion of left" style="text;html=1;align=center;verticalAlign=middle;resizable=0;points=[];autosize=1;strokeColor=none;fillColor=none;" parent="1" vertex="1">
          <mxGeometry x="680" y="800" width="200" height="40" as="geometry" />
        </mxCell>
        <mxCell id="tG6ciMTKyikNV-2g3emU-87" value="1:1" style="text;html=1;align=center;verticalAlign=middle;resizable=0;points=[];autosize=1;strokeColor=none;fillColor=none;" parent="1" vertex="1">
          <mxGeometry x="720" y="578" width="40" height="30" as="geometry" />
        </mxCell>
        <mxCell id="tG6ciMTKyikNV-2g3emU-93" value="" style="edgeStyle=orthogonalEdgeStyle;rounded=0;orthogonalLoop=1;jettySize=auto;html=1;" parent="1" source="tG6ciMTKyikNV-2g3emU-88" target="tG6ciMTKyikNV-2g3emU-68" edge="1">
          <mxGeometry relative="1" as="geometry" />
        </mxCell>
        <mxCell id="tG6ciMTKyikNV-2g3emU-88" value="" style="shape=lineEllipse;line=vertical;perimeter=ellipsePerimeter;whiteSpace=wrap;html=1;backgroundOutline=1;" parent="1" vertex="1">
          <mxGeometry x="725" y="525" width="30" height="30" as="geometry" />
        </mxCell>
        <mxCell id="tG6ciMTKyikNV-2g3emU-89" value="2:1" style="text;html=1;align=center;verticalAlign=middle;resizable=0;points=[];autosize=1;strokeColor=none;fillColor=none;" parent="1" vertex="1">
          <mxGeometry x="720" y="500" width="40" height="30" as="geometry" />
        </mxCell>
        <mxCell id="tG6ciMTKyikNV-2g3emU-100" value="" style="edgeStyle=orthogonalEdgeStyle;rounded=0;orthogonalLoop=1;jettySize=auto;html=1;" parent="1" source="tG6ciMTKyikNV-2g3emU-94" target="tG6ciMTKyikNV-2g3emU-67" edge="1">
          <mxGeometry relative="1" as="geometry" />
        </mxCell>
        <mxCell id="tG6ciMTKyikNV-2g3emU-94" value="" style="shape=lineEllipse;line=vertical;perimeter=ellipsePerimeter;whiteSpace=wrap;html=1;backgroundOutline=1;" parent="1" vertex="1">
          <mxGeometry x="725" y="445" width="30" height="30" as="geometry" />
        </mxCell>
        <mxCell id="tG6ciMTKyikNV-2g3emU-95" value="3:1" style="text;html=1;align=center;verticalAlign=middle;resizable=0;points=[];autosize=1;strokeColor=none;fillColor=none;" parent="1" vertex="1">
          <mxGeometry x="720" y="418" width="40" height="30" as="geometry" />
        </mxCell>
        <mxCell id="tG6ciMTKyikNV-2g3emU-101" value="Output (3, 64, 64)" style="whiteSpace=wrap;html=1;rounded=0;fillColor=#ffe6cc;strokeColor=#d79b00;" parent="1" vertex="1">
          <mxGeometry x="800" y="360" width="120" height="40" as="geometry" />
        </mxCell>
        <mxCell id="tG6ciMTKyikNV-2g3emU-105" value="n:m" style="text;html=1;align=center;verticalAlign=middle;resizable=0;points=[];autosize=1;strokeColor=none;fillColor=none;" parent="1" vertex="1">
          <mxGeometry x="640" y="770" width="40" height="30" as="geometry" />
        </mxCell>
      </root>
    </mxGraphModel>
  </diagram>
</mxfile>
